HIERARCHY
ROOT hip
{
  OFFSET 0 0 0
  CHANNELS 6 Xposition Yposition Zposition Zrotation Yrotation Xrotation
  JOINT abdomen
  {
    OFFSET 0 20.6881 -0.73152
    CHANNELS 3 Zrotation Xrotation Yrotation
    JOINT chest
    {
      OFFSET 0 11.7043 -0.48768
      CHANNELS 3 Zrotation Xrotation Yrotation
      JOINT neck
      {
        OFFSET 0 22.1894 -2.19456
        CHANNELS 3 Zrotation Xrotation Yrotation
        JOINT head
        {
          OFFSET -0.24384 7.07133 1.2192
          CHANNELS 3 Zrotation Xrotation Yrotation
          JOINT leftEye
          {
            OFFSET 4.14528 8.04674 8.04672
            CHANNELS 3 Zrotation Xrotation Yrotation
            End Site
            {
              OFFSET 1 0 0
            }
          }
          JOINT rightEye
          {
            OFFSET -3.6576 8.04674 8.04672
            CHANNELS 3 Zrotation Xrotation Yrotation
            End Site
            {
              OFFSET 1 0 0
            }
          }
        }
      }
      JOINT rCollar
      {
        OFFSET -2.68224 19.2634 -4.8768
        CHANNELS 3 Zrotation Xrotation Yrotation
        JOINT rShldr
        {
          OFFSET -8.77824 -1.95073 1.46304
          CHANNELS 3 Zrotation Xrotation Yrotation
          JOINT rForeArm
          {
            OFFSET -28.1742 -1.7115 0.48768
            CHANNELS 3 Zrotation Xrotation Yrotation
            JOINT rHand
            {
              OFFSET -22.5879 0.773209 7.07136
              CHANNELS 3 Zrotation Xrotation Yrotation
              JOINT rThumb1
              {
                OFFSET -1.2192 -0.487915 3.41376
                CHANNELS 3 Zrotation Xrotation Yrotation
                JOINT rThumb2
                {
                  OFFSET -3.37035 -0.52449 3.41376
                  CHANNELS 3 Zrotation Xrotation Yrotation
                  End Site
                  {
                    OFFSET -1.78271 -1.18214 1.43049
                  }
                }
              }
              JOINT rIndex1
              {
                OFFSET -7.75947 0.938293 5.60832
                CHANNELS 3 Zrotation Xrotation Yrotation
                JOINT rIndex2
                {
                  OFFSET -2.54057 -0.884171 1.56538
                  CHANNELS 3 Zrotation Xrotation Yrotation
                  End Site
                  {
                    OFFSET -1.62519 -0.234802 1.16502
                  }
                }
              }
              JOINT rMid1
              {
                OFFSET -8.24714 1.18213 3.41376
                CHANNELS 3 Zrotation Xrotation Yrotation
                JOINT rMid2
                {
                  OFFSET -3.10165 -0.590103 1.0647
                  CHANNELS 3 Zrotation Xrotation Yrotation
                  End Site
                  {
                    OFFSET -2.48547 -0.328903 0.83742
                  }
                }
              }
              JOINT rRing1
              {
                OFFSET -8.82822 0.546677 1.51678
                CHANNELS 3 Zrotation Xrotation Yrotation
                JOINT rRing2
                {
                  OFFSET -2.60934 -0.819778 -0.0198488
                  CHANNELS 3 Zrotation Xrotation Yrotation
                  End Site
                  {
                    OFFSET -2.33842 -0.294052 0.168128
                  }
                }
              }
              JOINT rPinky1
              {
                OFFSET -8.27202 -0.0477905 -0.4584
                CHANNELS 3 Zrotation Xrotation Yrotation
                JOINT rPinky2
                {
                  OFFSET -1.82734 -0.647385 -0.700984
                  CHANNELS 3 Zrotation Xrotation Yrotation
                  End Site
                  {
                    OFFSET -1.69225 -0.51767 -0.607171
                  }
                }
              }
            }
          }
        }
      }
      JOINT lCollar
      {
        OFFSET 2.68224 19.2634 -4.8768
        CHANNELS 3 Zrotation Xrotation Yrotation
        JOINT lShldr
        {
          OFFSET 8.77824 -1.95073 1.46304
          CHANNELS 3 Zrotation Xrotation Yrotation
          JOINT lForeArm
          {
            OFFSET 28.1742 -1.7115 0.48768
            CHANNELS 3 Zrotation Xrotation Yrotation
            JOINT lHand
            {
              OFFSET 22.5879 0.773209 7.07136
              CHANNELS 3 Zrotation Xrotation Yrotation
              JOINT lThumb1
              {
                OFFSET 1.2192 -0.487915 3.41376
                CHANNELS 3 Zrotation Xrotation Yrotation
                JOINT lThumb2
                {
                  OFFSET 3.37035 -0.52449 3.41376
                  CHANNELS 3 Zrotation Xrotation Yrotation
                  End Site
                  {
                    OFFSET 1.78271 -1.18214 1.43049
                  }
                }
              }
              JOINT lIndex1
              {
                OFFSET 7.75947 0.938293 5.60832
                CHANNELS 3 Zrotation Xrotation Yrotation
                JOINT lIndex2
                {
                  OFFSET 2.54057 -0.884171 1.56538
                  CHANNELS 3 Zrotation Xrotation Yrotation
                  End Site
                  {
                    OFFSET 1.62519 -0.234802 1.16502
                  }
                }
              }
              JOINT lMid1
              {
                OFFSET 8.24714 1.18213 3.41376
                CHANNELS 3 Zrotation Xrotation Yrotation
                JOINT lMid2
                {
                  OFFSET 3.10165 -0.590103 1.0647
                  CHANNELS 3 Zrotation Xrotation Yrotation
                  End Site
                  {
                    OFFSET 2.48547 -0.328903 0.83742
                  }
                }
              }
              JOINT lRing1
              {
                OFFSET 8.82822 0.546677 1.51678
                CHANNELS 3 Zrotation Xrotation Yrotation
                JOINT lRing2
                {
                  OFFSET 2.60934 -0.819778 -0.0198488
                  CHANNELS 3 Zrotation Xrotation Yrotation
                  End Site
                  {
                    OFFSET 2.33842 -0.294052 0.168128
                  }
                }
              }
              JOINT lPinky1
              {
                OFFSET 8.27202 -0.0477905 -0.4584
                CHANNELS 3 Zrotation Xrotation Yrotation
                JOINT lPinky2
                {
                  OFFSET 1.82734 -0.647385 -0.700984
                  CHANNELS 3 Zrotation Xrotation Yrotation
                  End Site
                  {
                    OFFSET 1.69225 -0.51767 -0.607171
                  }
                }
              }
            }
          }
        }
      }
    }
  }
  JOINT rButtock
  {
    OFFSET -8.77824 4.35084 1.2192
    CHANNELS 3 Zrotation Xrotation Yrotation
    JOINT rThigh
    {
      OFFSET 0 -1.70687 -2.19456
      CHANNELS 3 Zrotation Xrotation Yrotation
      JOINT rShin
      {
        OFFSET 0 -36.8199 0.73152
        CHANNELS 3 Zrotation Xrotation Yrotation
        JOINT rFoot
        {
          OFFSET 0.73152 -45.1104 -5.12064
          CHANNELS 3 Zrotation Xrotation Yrotation
          End Site
          {
            OFFSET -1.1221 -3.69964 12.103
          }
        }
      }
    }
  }
  JOINT lButtock
  {
    OFFSET 8.77824 4.35084 1.2192
    CHANNELS 3 Zrotation Xrotation Yrotation
    JOINT lThigh
    {
      OFFSET 0 -1.70687 -2.19456
      CHANNELS 3 Zrotation Xrotation Yrotation
      JOINT lShin
      {
        OFFSET 0 -36.8199 0.73152
        CHANNELS 3 Zrotation Xrotation Yrotation
        JOINT lFoot
        {
          OFFSET -0.73152 -45.1104 -5.12064
          CHANNELS 3 Zrotation Xrotation Yrotation
          End Site
          {
            OFFSET 1.1221 -3.69964 12.103
          }
        }
      }
    }
  }
}
MOTION
Frames:	5
Frame Time:	0.00833333
55.7853 84.6972 -59.9303 2.1491 -4.4441 -0.1698 -4.64603 3.302 -3.86509 -0.157739 -1.74508 -1.36284 14.6168 17.5923 8.29649 -30.486 -27.0184 9.63533 -0.0 0.0 0.0 -0.0 0.0 0.0 -2.19128e-14 9.03209e-15 -1.84031e-14 79.3627 26.8681 0.0665855 -9.9347 -4.10225 17.6785 -0.467024 19.071 2.78463 7.60059e-10 -5.67395e-10 2.33526e-10 1.31691e-09 -9.78233e-10 3.90351e-10 7.60064e-10 -5.67399e-10 2.33501e-10 7.73091 5.47488 0.417314 7.6006e-10 -5.67399e-10 2.33521e-10 2.90554 0.965183 0.102902 7.60066e-10 -5.67401e-10 2.33515e-10 10.2786 0.731801 0.0259123 7.60056e-10 -5.67401e-10 2.33521e-10 2.22167 -0.733487 -0.20892 -2.19734e-14 9.03255e-15 -1.86927e-14 -82.3531 30.9828 7.18029 9.99807 -4.14046 -17.7975 0.00781887 -2.60794 0.366757 1.25038e-10 1.39529e-10 2.73108e-10 2.14991e-10 2.40641e-10 4.72541e-10 1.25022e-10 1.3953e-10 2.73112e-10 -7.73091 5.47488 -0.417314 1.25029e-10 1.39532e-10 2.73097e-10 -2.90554 0.965183 -0.102902 1.25015e-10 1.39533e-10 2.73102e-10 -10.2786 0.731801 -0.0259123 1.25039e-10 1.39538e-10 2.73109e-10 -2.22167 -0.733487 0.20892 -2.03217e-16 0.0 -3.88251e-19 -4.55933 -18.4033 -0.209332 -1.33929 63.1291 1.61852 -1.1363 0.0645148 -7.12065 2.03217e-16 0.0 3.88251e-19 -6.40064 -17.7693 3.87555 0.0584596 25.0719 0.0859071 0.519908 -9.27772 0.255608
55.8827 84.7646 -59.0514 2.3022 -4.2013 -0.4054 -4.94211 3.416 -4.24219 0.0957591 -1.73188 -1.4673 14.6407 17.5762 8.35446 -30.6991 -26.7732 9.76368 -0.0 0.0 0.0 -0.0 0.0 0.0 -1.93518e-14 8.77174e-15 5.19946e-15 79.3061 27.1399 -0.341499 -10.0512 -4.17317 17.8965 -0.433594 18.4175 2.68195 4.53002e-10 -3.69983e-10 2.03046e-10 7.85614e-10 -6.38511e-10 3.4269e-10 4.53007e-10 -3.69986e-10 2.03029e-10 7.73091 5.47488 0.417314 4.53004e-10 -3.69987e-10 2.03049e-10 2.90554 0.965183 0.102902 4.5301e-10 -3.69988e-10 2.03039e-10 10.2786 0.731801 0.0259123 4.52998e-10 -3.69988e-10 2.03046e-10 2.22167 -0.733487 -0.20892 -1.93379e-14 8.7714e-15 4.93856e-15 -81.9627 31.0547 6.41198 9.89861 -4.08028 -17.6111 0.00437565 -2.05203 0.28849 1.40456e-10 1.08319e-10 3.07781e-10 2.4193e-10 1.86659e-10 5.32678e-10 1.40446e-10 1.08321e-10 3.07787e-10 -7.73091 5.47488 -0.417314 1.40452e-10 1.08323e-10 3.07775e-10 -2.90554 0.965183 -0.102902 1.40439e-10 1.08323e-10 3.07778e-10 -10.2786 0.731801 -0.0259123 1.40457e-10 1.08327e-10 3.0778e-10 -2.22167 -0.733487 0.20892 -2.03217e-16 0.0 -3.88251e-19 -4.89777 -19.4844 -0.664353 -1.35365 63.36 1.65228 -1.22024 -0.942665 -6.80871 2.03217e-16 0.0 3.88251e-19 -6.7742 -16.9099 3.83697 0.0483026 24.8462 0.0543382 0.500066 -9.77678 0.0890959
55.9919 84.7688 -58.1884 2.4058 -3.9218 -0.5806 -5.2036 3.51146 -4.61006 0.355395 -1.73364 -1.56696 14.6604 17.5637 8.40698 -30.8826 -26.5065 9.89371 -0.0 0.0 0.0 -0.0 0.0 0.0 -1.5233e-14 7.70384e-15 2.86498e-14 79.2693 27.3711 -0.77678 -10.1705 -4.24604 18.121 -0.404039 17.7975 2.58554 1.49789e-10 -1.68002e-10 1.57144e-10 2.60742e-10 -2.90805e-10 2.68463e-10 1.49794e-10 -1.68004e-10 1.57135e-10 7.73091 5.47488 0.417314 1.49792e-10 -1.68006e-10 1.57155e-10 2.90554 0.965183 0.102902 1.49798e-10 -1.68006e-10 1.57141e-10 10.2786 0.731801 0.0259123 1.49784e-10 -1.68006e-10 1.5715e-10 2.22167 -0.733487 -0.20892 -1.51417e-14 7.70267e-15 2.84239e-14 -81.5733 31.1424 5.64561 9.8092 -4.02627 -17.4441 0.0025259 -1.55925 0.219177 1.62189e-10 9.55792e-11 2.93172e-10 2.79998e-10 1.64769e-10 5.07426e-10 1.62186e-10 9.55824e-11 2.9318e-10 -7.73091 5.47488 -0.417314 1.6219e-10 9.5583e-11 2.93171e-10 -2.90554 0.965183 -0.102902 1.62178e-10 9.5583e-11 2.93172e-10 -10.2786 0.731801 -0.0259123 1.6219e-10 9.55848e-11 2.93168e-10 -2.22167 -0.733487 0.20892 -2.03217e-16 0.0 -3.88251e-19 -5.20346 -20.5278 -1.09906 -1.35505 63.4391 1.67468 -1.28511 -1.97013 -6.42505 2.03217e-16 0.0 3.88251e-19 -7.09623 -16.1324 3.83098 0.040247 24.741 0.0170149 0.478138 -10.3271 -0.0711676
56.0871 84.7341 -57.37 2.4368 -3.5689 -0.6108 -5.32277 3.54825 -4.97002 0.563708 -1.73727 -1.66145 14.6596 17.5747 8.45041 -30.9811 -26.3265 10.0072 -0.0 0.0 0.0 -0.0 0.0 0.0 -1.86026e-14 6.16349e-15 3.66758e-14 79.2609 27.4299 -1.18858 -10.2666 -4.30496 18.3024 -0.385329 17.3783 2.52093 4.34464e-11 -8.72394e-11 1.35908e-10 7.63826e-11 -1.51681e-10 2.33799e-10 4.34511e-11 -8.72398e-11 1.35905e-10 7.73091 5.47488 0.417314 4.34502e-11 -8.72421e-11 1.35924e-10 2.90554 0.965183 0.102902 4.34558e-11 -8.72416e-11 1.35908e-10 10.2786 0.731801 0.0259123 4.34418e-11 -8.72418e-11 1.35918e-10 2.22167 -0.733487 -0.20892 -1.84719e-14 6.16194e-15 3.6477e-14 -81.1752 31.374 4.92227 9.78041 -4.00897 -17.3904 0.00209222 -1.30596 0.183573 2.54196e-10 1.53573e-10 2.73677e-10 4.39525e-10 2.65217e-10 4.73509e-10 2.54197e-10 1.53577e-10 2.73687e-10 -7.73091 5.47488 -0.417314 2.542e-10 1.53576e-10 2.73677e-10 -2.90554 0.965183 -0.102902 2.54189e-10 1.53577e-10 2.73678e-10 -10.2786 0.731801 -0.0259123 2.54198e-10 1.53577e-10 2.73671e-10 -2.22167 -0.733487 0.20892 -2.03217e-16 0.0 -3.88251e-19 -5.36879 -21.6449 -1.45929 -1.35029 63.4395 1.69034 -1.33234 -2.91087 -6.06838 2.03217e-16 0.0 3.88251e-19 -7.2831 -15.5289 3.86483 0.0349496 24.8177 -0.0249394 0.453618 -10.9159 -0.221641
56.0949 84.6427 -56.5909 2.1449 -3.2512 -0.5603 -5.22964 3.49485 -5.31786 0.69623 -1.73845 -1.74847 14.6191 17.6179 8.48533 -30.947 -26.2617 10.1101 -0.0 0.0 0.0 -0.0 0.0 0.0 -3.61667e-14 4.03635e-15 2.02477e-14 79.2838 27.2128 -1.56212 -10.3271 -4.34228 18.4168 -0.3821 17.2955 2.50834 2.68461e-10 -2.00334e-10 1.56481e-10 4.65106e-10 -3.46026e-10 2.66286e-10 2.68465e-10 -2.00334e-10 1.5648e-10 7.73091 5.47488 0.417314 2.68464e-10 -2.00335e-10 1.56498e-10 2.90554 0.965183 0.102902 2.68469e-10 -2.00335e-10 1.56482e-10 10.2786 0.731801 0.0259123 2.68456e-10 -2.00335e-10 1.56491e-10 2.22167 -0.733487 -0.20892 -3.60535e-14 4.03513e-15 2.0066e-14 -80.7576 31.8237 4.25104 9.82963 -4.03847 -17.4824 0.00247169 -1.37316 0.193031 4.87519e-10 3.52555e-10 2.54031e-10 8.43373e-10 6.09511e-10 4.38883e-10 4.87519e-10 3.52557e-10 2.54041e-10 -7.73091 5.47488 -0.417314 4.87521e-10 3.52555e-10 2.54028e-10 -2.90554 0.965183 -0.102902 4.87511e-10 3.52558e-10 2.54032e-10 -10.2786 0.731801 -0.0259123 4.8752e-10 3.52558e-10 2.54024e-10 -2.22167 -0.733487 0.20892 -2.03217e-16 0.0 -3.88251e-19 -5.31353 -22.8963 -1.70869 -1.34135 63.3902 1.70136 -1.36082 -3.72902 -5.73118 2.03217e-16 0.0 3.88251e-19 -7.27086 -15.1866 3.96394 0.0344197 25.1708 -0.0742082 0.425646 -11.5645 -0.364019
